<svg viewBox="0 0 2048 2048" version="1.1" width="100%" xml:space="preserve" xmlns="http://www.w3.org/2000/svg" xmlns:xlink="http://www.w3.org/1999/xlink" style="fill-rule:evenodd;clip-rule:evenodd;stroke-linecap:round;stroke-linejoin:round;" height="100%">
<metadata>












</metadata>
<defs></defs>
<g id="Layer 2">
<path fill="#ffffff" opacity="1" d="M480.857+841.788L1647.89+841.788C1656.88+841.788+1664.17+846.367+1664.17+852.016L1664.17+852.016C1664.17+857.664+1656.88+862.243+1647.89+862.243L480.857+862.243C471.869+862.243+464.583+857.664+464.583+852.016L464.583+852.016C464.583+846.367+471.869+841.788+480.857+841.788Z"></path>
<path fill="#ffffff" opacity="1" d="M485.149+467.243L485.149+856.519C485.149+859.517+480.57+861.947+474.921+861.947L474.921+861.947C469.273+861.947+464.694+859.517+464.694+856.519L464.694+467.243C464.694+464.245+469.273+461.814+474.921+461.814L474.921+461.814C480.57+461.814+485.149+464.245+485.149+467.243Z"></path>
<path fill="#ffffff" opacity="1" d="M859.098+483.088L470.269+482.104C467.274+482.097+464.859+477.511+464.873+471.863L464.873+471.863C464.887+466.214+467.326+461.641+470.321+461.649L859.15+462.632C862.144+462.64+864.56+467.225+864.546+472.874L864.546+472.874C864.532+478.523+862.093+483.096+859.098+483.088Z"></path>
<path fill="#ffffff" opacity="1" d="M856.828+1262.62L467.553+1261.63C464.555+1261.63+462.136+1257.04+462.151+1251.39L462.151+1251.39C462.165+1245.74+464.607+1241.17+467.605+1241.18L856.88+1242.16C859.877+1242.17+862.296+1246.75+862.282+1252.4L862.282+1252.4C862.268+1258.05+859.826+1262.62+856.828+1262.62Z"></path>
<path fill="#ffffff" opacity="1" d="M843.528+1251.6L844.444+473.324C844.451+467.33+848.724+462.494+853.987+462.523L853.987+462.523C859.251+462.551+863.512+467.433+863.505+473.427L862.588+1251.71C862.581+1257.7+858.309+1262.54+853.045+1262.51L853.045+1262.51C847.782+1262.48+843.521+1257.6+843.528+1251.6Z"></path>
<path fill="#ffffff" opacity="1" d="M1244.12+1252.02L1245.04+473.742C1245.04+467.748+1249.32+462.913+1254.58+462.941L1254.58+462.941C1259.84+462.97+1264.1+467.852+1264.1+473.845L1263.18+1252.12C1263.17+1258.12+1258.9+1262.95+1253.64+1262.93L1253.64+1262.93C1248.37+1262.9+1244.11+1258.01+1244.12+1252.02Z"></path>
<path stroke-linejoin="round" opacity="1" fill-opacity="0" stroke-linecap="round" fill="#ffffff" d="M1653.41+1252.52C1432.55+1252.52+1253.51+1073.35+1253.51+852.337C1253.51+631.321+1432.55+452.151+1653.41+452.151C1667.52+452.151+1681.46+452.882+1695.18+454.308" stroke-width="20" stroke="#ffffff"></path>
</g>
</svg>
