<svg fill="#000000" xmlns="http://www.w3.org/2000/svg"  viewBox="0 0 100 100" width="100px" height="100px"><path d="M 31.011719 17.988281 C 23.831719 17.988281 18.011719 23.808281 18.011719 30.988281 L 18.011719 69.988281 C 18.011719 77.168281 23.831719 82.988281 31.011719 82.988281 L 70.011719 82.988281 C 77.190719 82.988281 83.011719 77.168281 83.011719 69.988281 L 83.011719 30.988281 C 83.011719 23.808281 77.191719 17.988281 70.011719 17.988281 L 31.011719 17.988281 z M 31.011719 19.988281 L 70.011719 19.988281 C 76.086719 19.988281 81.011719 24.913281 81.011719 30.988281 L 81.011719 69.988281 C 81.011719 76.063281 76.086719 80.988281 70.011719 80.988281 L 31.011719 80.988281 C 24.936719 80.988281 20.011719 76.063281 20.011719 69.988281 L 20.011719 30.988281 C 20.011719 24.913281 24.935719 19.988281 31.011719 19.988281 z M 33.847656 22.988281 C 27.862656 22.988281 23.011719 27.839219 23.011719 33.824219 L 23.011719 67.150391 C 23.011719 73.135391 27.862656 77.988281 33.847656 77.988281 L 67.173828 77.988281 C 73.158828 77.988281 78.011719 73.136391 78.011719 67.150391 L 78.011719 48.488281 C 78.011719 48.212281 77.787719 47.988281 77.511719 47.988281 C 77.235719 47.988281 77.011719 48.212281 77.011719 48.488281 L 77.011719 67.150391 C 77.011719 72.583391 72.606828 76.988281 67.173828 76.988281 L 33.849609 76.988281 C 28.416609 76.988281 24.011719 72.583391 24.011719 67.150391 L 24.011719 33.824219 C 24.011719 28.391219 28.414656 23.988281 33.847656 23.988281 L 67.511719 23.988281 C 67.787719 23.988281 68.011719 23.764281 68.011719 23.488281 C 68.011719 23.212281 67.787719 22.988281 67.511719 22.988281 L 33.847656 22.988281 z M 33.599609 36 C 32.585655 36 31.656131 36.341353 30.894531 36.900391 A 0.50005 0.50005 0 0 0 30.638672 37.111328 C 29.645481 37.956016 29 39.19825 29 40.599609 L 29 61.400391 C 29 62.80121 29.644189 64.043991 30.636719 64.888672 A 0.50059592 0.50059592 0 0 0 30.914062 65.117188 C 31.671846 65.666829 32.595065 66 33.599609 66 L 67.400391 66 C 68.671958 66 69.824377 65.47895 70.658203 64.640625 A 0.50005 0.50005 0 0 0 70.929688 64.3125 C 71.587992 63.516551 72 62.510346 72 61.400391 L 72 40.599609 C 72 39.488669 71.587089 38.481804 70.927734 37.685547 A 0.50005 0.50005 0 0 0 70.681641 37.388672 C 69.845853 36.534702 68.685404 36 67.400391 36 L 33.599609 36 z M 77.511719 36.566406 C 77.235719 36.566406 77.011719 36.790406 77.011719 37.066406 L 77.011719 39.066406 C 77.011719 39.342406 77.235719 39.566406 77.511719 39.566406 C 77.787719 39.566406 78.011719 39.343406 78.011719 39.066406 L 78.011719 37.066406 C 78.011719 36.790406 77.787719 36.566406 77.511719 36.566406 z M 33.599609 37 L 67.400391 37 C 68.300037 37 69.110465 37.338868 69.740234 37.880859 L 58.371094 50.798828 A 0.50005 0.50005 0 0 0 58.257812 50.929688 L 55.882812 53.626953 C 53.048879 56.847162 48.034513 56.788664 45.275391 53.503906 L 43.126953 50.945312 A 0.50005 0.50005 0 0 0 43.017578 50.814453 A 0.50005 0.50005 0 0 0 43.013672 50.8125 L 31.820312 37.484375 C 32.346323 37.184177 32.948365 37 33.599609 37 z M 31.021484 38.089844 L 42.033203 51.199219 L 31.033203 63.921875 C 30.395822 63.273056 30 62.385733 30 61.400391 L 30 40.599609 C 30 39.620232 30.390917 38.737639 31.021484 38.089844 z M 70.412109 38.628906 C 70.782111 39.194729 71 39.870407 71 40.599609 L 71 61.400391 C 71 62.139309 70.77755 62.824191 70.398438 63.394531 L 59.359375 51.189453 L 70.412109 38.628906 z M 77.511719 40.566406 C 77.235719 40.566406 77.011719 40.790406 77.011719 41.066406 L 77.011719 45.066406 C 77.011719 45.342406 77.235719 45.566406 77.511719 45.566406 C 77.787719 45.566406 78.011719 45.343406 78.011719 45.066406 L 78.011719 41.066406 C 78.011719 40.790406 77.787719 40.566406 77.511719 40.566406 z M 58.693359 51.945312 L 69.720703 64.134766 C 69.093476 64.667021 68.290997 65 67.400391 65 L 33.599609 65 C 32.954619 65 32.358487 64.818297 31.835938 64.523438 L 42.683594 51.974609 L 44.509766 54.148438 C 47.650644 57.887678 53.406746 57.952901 56.632812 54.287109 L 58.693359 51.945312 z"/></svg>